<svg xmlns="http://www.w3.org/2000/svg" width="24.119" height="23.611" viewBox="0 0 24.119 23.611">
  <defs>
    <style>
      .cls-1 {
        fill: #16729f;
      }
    </style>
  </defs>
  <g id="holisticos" transform="translate(-38.717 -624.825)">
    <path id="holistic" class="cls-1" d="M18.1,3.825a6.71,6.71,0,0,0-6.7,6.7v1.207a6.612,6.612,0,0,0-.817,1.291,4.382,4.382,0,0,0-.643-.744v-.35a5.31,5.31,0,0,0-5.327-5.28,3.884,3.884,0,0,1-1.729-.408L0,4.8v3.97a4.952,4.952,0,0,0,4.946,4.946H9.338a2.987,2.987,0,0,1,.575,1.413A4.24,4.24,0,0,0,9.94,23.61h9.94a4.24,4.24,0,0,0,0-8.479H11.4A5.14,5.14,0,0,1,12.77,12.3h4.989a6.367,6.367,0,0,0,6.359-6.359V0L21.842,2.276A5.254,5.254,0,0,1,18.1,3.825Zm0,1.413a6.683,6.683,0,0,0,2.7-.563,12,12,0,0,1-6.308,4.912,6.692,6.692,0,0,0-1.677.835A5.3,5.3,0,0,1,18.1,5.238ZM8.487,11.385A16.063,16.063,0,0,1,3.2,7.87a5.3,5.3,0,0,0,1.415.194,3.9,3.9,0,0,1,3.874,3.32ZM1.413,8.771v-.74A17.292,17.292,0,0,0,7.067,12.3H4.946A3.537,3.537,0,0,1,1.413,8.771Zm5.7,10.6A2.829,2.829,0,0,1,9.94,16.544h4.287V22.2H9.94A2.83,2.83,0,0,1,7.113,19.37Zm15.592,0A2.83,2.83,0,0,1,19.879,22.2H15.64V16.544h4.24A2.829,2.829,0,0,1,22.706,19.37Zm-4.946-8.479H15.044A13.415,13.415,0,0,0,22.2,5.106l.51-.85V5.945a4.952,4.952,0,0,1-4.946,4.946Zm0,0" transform="translate(38.717 624.826)"/>
  </g>
</svg>
