<svg id="Group_2" data-name="Group 2" xmlns="http://www.w3.org/2000/svg" width="18.66" height="23.611" viewBox="0 0 18.66 23.611">
  <defs>
    <style>
      .cls-1 {
        fill: #16729f;
      }
    </style>
  </defs>
  <path id="Path_1" data-name="Path 1" class="cls-1" d="M62.147,220.526a7.141,7.141,0,0,1-1.09,1.108A7.822,7.822,0,0,1,65,228.42c0,1.567-3.434,2.795-7.817,2.795s-7.817-1.228-7.817-2.795a7.822,7.822,0,0,1,3.94-6.786,7.144,7.144,0,0,1-1.09-1.108,9.331,9.331,0,0,0-4.362,7.894c0,1.006.551,2.407,3.174,3.373a18.489,18.489,0,0,0,6.155.934,18.489,18.489,0,0,0,6.155-.934c2.624-.966,3.174-2.368,3.174-3.373A9.331,9.331,0,0,0,62.147,220.526Z" transform="translate(-47.85 -209.117)"/>
  <path id="Path_2" data-name="Path 2" class="cls-1" d="M132.789,12.406c2.94,0,5.2-2.842,5.2-6.2s-2.265-6.2-5.2-6.2-5.2,2.842-5.2,6.2S129.85,12.406,132.789,12.406Zm0-10.893c2.036,0,3.692,2.1,3.692,4.69s-1.656,4.69-3.692,4.69S129.1,8.789,129.1,6.2,130.754,1.513,132.789,1.513Z" transform="translate(-123.46)"/>
</svg>
