<svg xmlns="http://www.w3.org/2000/svg" width="23.615" height="23.611" viewBox="0 0 23.615 23.611">
  <defs>
    <style>
      .cls-1 {
        fill: #2cabea;
      }
    </style>
  </defs>
  <g id="Group_11" data-name="Group 11" transform="translate(0 0)">
    <path id="Path_8" data-name="Path 8" class="cls-1" d="M23.375,8.652a4.848,4.848,0,0,0-6.1-3.109,5.737,5.737,0,0,0-1.011.446,5.733,5.733,0,0,0,.112-1.1A4.575,4.575,0,0,0,11.856.049,4.653,4.653,0,0,0,7.24,4.891a5.733,5.733,0,0,0,.112,1.1,5.74,5.74,0,0,0-1.011-.446A4.848,4.848,0,0,0,.24,8.652a5.011,5.011,0,0,0,3.109,6.263,5.738,5.738,0,0,0,1.08.233,5.738,5.738,0,0,0-.737.823,4.848,4.848,0,0,0,1.071,6.763A4.578,4.578,0,0,0,11.3,21.664a5.74,5.74,0,0,0,.555-.955,5.735,5.735,0,0,0,.555.955,4.468,4.468,0,0,0,6.44,1.071,4.848,4.848,0,0,0,1.071-6.763,5.736,5.736,0,0,0-.737-.823,5.745,5.745,0,0,0,1.08-.233A5.011,5.011,0,0,0,23.375,8.652ZM11.856,1.432a3.2,3.2,0,0,1,3.136,3.459,6.034,6.034,0,0,1-.944,2.975.689.689,0,0,0-.1.374l-.72,1.247a3.513,3.513,0,0,0-.686-.213V6.436a.684.684,0,0,0-.682-.692.692.692,0,0,0-.692.692V9.273a3.432,3.432,0,0,0-.692.22l-.8-1.317a.689.689,0,0,0-.1-.31,6.034,6.034,0,0,1-.944-2.975A3.278,3.278,0,0,1,11.856,1.432ZM3.776,13.6A3.655,3.655,0,0,1,1.556,9.08,3.463,3.463,0,0,1,5.914,6.859,5.811,5.811,0,0,1,8.152,8.347l1.188,1.946a3.476,3.476,0,0,0-.491.664l-2.7-.877A.692.692,0,0,0,5.721,11.4l2.7.877a3.372,3.372,0,0,0,0,.792l-1.728.6A5.936,5.936,0,0,1,3.776,13.6Zm7.388,4.31a6.024,6.024,0,0,1-.983,2.94,3.2,3.2,0,0,1-4.605.765,3.463,3.463,0,0,1-.765-4.831,6.637,6.637,0,0,1,2.627-1.912l1.417-.494a3.476,3.476,0,0,0,.45.617l-1.669,2.3a.692.692,0,1,0,1.119.813l1.668-2.3a3.428,3.428,0,0,0,.74.242V17.91Zm.692-3.173a2.075,2.075,0,1,1,2.075-2.075A2.078,2.078,0,0,1,11.856,14.737Zm6.182,6.879a3.087,3.087,0,0,1-4.508-.765,6.03,6.03,0,0,1-.992-2.94V16.051a3.507,3.507,0,0,0,.749-.242l1.668,2.3a.692.692,0,0,0,1.119-.813L14.406,15a3.477,3.477,0,0,0,.447-.611l1.289.465A6.881,6.881,0,0,1,18.8,16.785,3.462,3.462,0,0,1,18.038,21.616Zm-1.065-7.938L15.29,13.07a3.37,3.37,0,0,0,0-.8l2.7-.877a.692.692,0,0,0-.428-1.316l-2.7.877a3.476,3.476,0,0,0-.5-.675L15.5,8.305a5.777,5.777,0,0,1,2.2-1.446A3.463,3.463,0,0,1,22.059,9.08a3.655,3.655,0,0,1-2.221,4.52h0A5.909,5.909,0,0,1,16.974,13.677Z" transform="translate(0 -0.049)"/>
  </g>
</svg>
