<svg xmlns="http://www.w3.org/2000/svg" width="23.611" height="23.611" viewBox="0 0 23.611 23.611">
  <defs>
    <style>
      .cls-1 {
        fill: #16729f;
      }
    </style>
  </defs>
  <g id="Cetac" transform="translate(-40 -626.848)">
    <path id="info" class="cls-1" d="M.923,23.611a.922.922,0,0,1-.855-1.268l2.094-5.18A10.2,10.2,0,0,1,0,10.883,10.4,10.4,0,0,1,3.487,3.159,12.259,12.259,0,0,1,11.805,0a12.259,12.259,0,0,1,8.318,3.159,10.4,10.4,0,0,1,3.487,7.724,10.241,10.241,0,0,1-1.872,5.885.922.922,0,1,1-1.512-1.056,8.4,8.4,0,0,0,1.54-4.829c0-4.984-4.468-9.038-9.961-9.038S1.845,5.9,1.845,10.883a8.431,8.431,0,0,0,2.077,5.523.922.922,0,0,1,.153.944L2.629,20.928l4.212-1.857a.922.922,0,0,1,.734,0,10.881,10.881,0,0,0,9.086-.291.922.922,0,1,1,.835,1.645,12.735,12.735,0,0,1-10.269.5L1.294,23.532A.921.921,0,0,1,.923,23.611Zm11.805-8.623v-4.98a.922.922,0,0,0-1.845,0v4.98a.922.922,0,0,0,1.845,0ZM11.805,5.9a.922.922,0,0,0-.922.922h0a.922.922,0,0,0,1.845,0h0A.922.922,0,0,0,11.805,5.9Z" transform="translate(40 626.848)"/>
  </g>
</svg>
