<svg xmlns="http://www.w3.org/2000/svg" width="21.627" height="23.611" viewBox="0 0 21.627 23.611">
  <defs>
    <style>
      .cls-1 {
        fill: #16729f;
      }
    </style>
  </defs>
  <g id="acompañamiento" transform="translate(-40.603 -628.848)">
    <path id="accompany" class="cls-1" d="M27.091,23.61a.922.922,0,0,1-.922-.922V19.081l-1.072-3.8a.923.923,0,0,1-.016-.437l.83-4.012a.922.922,0,0,1,1.806.374L26.933,15l1.046,3.7a.923.923,0,0,1,.035.251v3.735a.922.922,0,0,1-.922.922Zm1.8-20.844a2.767,2.767,0,1,0-2.767,2.767A2.77,2.77,0,0,0,28.89,2.767Zm-1.845,0a.922.922,0,1,1-.922-.922A.923.923,0,0,1,27.045,2.767ZM23.327,22.92l.922-3.551a.923.923,0,0,0,0-.459l-.771-3.041a6.079,6.079,0,0,1-.021-2.347l.976-4.444.005-.027a.923.923,0,0,1,.906-.751h1.559a1.692,1.692,0,0,1,1.381.8l3.933,6.064a.922.922,0,0,0,1.067.373,43.708,43.708,0,0,1,4.7-1.382l1.288,0a.924.924,0,0,1,.921.923l-.005,5.412a.922.922,0,0,0,.1.416L41.391,23.1a.922.922,0,1,0,1.647-.831l-1.008-2,0-5.192a2.77,2.77,0,0,0-2.762-2.769l-1.3,0a11.755,11.755,0,0,0-3.032.756c-.582.18-1.145.361-1.562.5L29.834,8.1a3.552,3.552,0,0,0-2.928-1.643H25.346A2.769,2.769,0,0,0,22.63,8.695l-.977,4.446-.005.027a7.915,7.915,0,0,0,.029,3.1c0,.013.006.026.009.039l.718,2.831-.863,3.322a.922.922,0,1,0,1.785.464Zm14.139-.232V20.714L38.218,19a.923.923,0,0,0,.078-.371V17.339a.922.922,0,1,0-1.845,0v1.1L35.7,20.15a.923.923,0,0,0-.078.371v2.167a.922.922,0,1,0,1.845,0ZM41.524,8.669a2.767,2.767,0,1,0-2.767,2.767A2.77,2.77,0,0,0,41.524,8.669Zm-1.845,0a.922.922,0,1,1-.922-.922A.923.923,0,0,1,39.679,8.669Z" transform="translate(19.093 628.848)"/>
  </g>
</svg>
